<svg xmlns="http://www.w3.org/2000/svg" viewBox="0 0 29.05 29.04"><defs><style>.a{fill:#fff;}</style></defs><title>disc-place-right</title><path d="M14.53,0a14.5,14.5,0,0,1,5.73,27.84A15.23,15.23,0,0,1,14.53,29,14.83,14.83,0,0,1,8.8,27.86,14.52,14.52,0,0,1,14.53,0Zm0,0A13.59,13.59,0,0,0,4.71,4.2,13.69,13.69,0,0,0,1,14a13.53,13.53,0,0,0,27,0A13.49,13.49,0,0,0,14.53,0Z" transform="translate(-0.01)"/><rect class="a" x="3.09" y="11.85" width="14.98" height="4.77" transform="translate(21.14 28.47) rotate(180)"/><path class="a" d="M13.73,6.48S15.11,12.33,26,14.23H15.52C13.61,11.63,13.73,6.48,13.73,6.48Z" transform="translate(-0.01)"/><path class="a" d="M15.52,14.23C13.61,16.84,13.73,22,13.73,22S15.11,16.14,26,14.23" transform="translate(-0.01)"/></svg>