<svg xmlns="http://www.w3.org/2000/svg" viewBox="0 0 828.63 582.9"><defs><style>.a{fill:#1a1410;}.b{fill:#30271e;}.c{fill:#5c493a;}.d{fill:#524233;}.e{fill:#7f5e5f;}.f{fill:#d8a0a0;}.g{fill:#667780;}.h{fill:#a4bbc8;}.i{fill:#14100d;}.j{fill:#141a11;}.k{fill:#1c2418;}.l{fill:#34422c;}</style></defs><title>game-bg</title><polygon class="a" points="431.48 487.64 451.4 505.96 547.24 491.21 515.23 477.43 417.44 479.73 431.48 487.64"/><polygon class="a" points="136.08 64.08 146.04 42.87 155.88 61.22 210.6 23.46 199.69 47.47 182.43 64.08 244.23 31.18 266.29 31.18 304.59 16.06 542.8 61.22 558.94 23.46 563.47 31.18 600.68 98.02 625.47 49.77 635.94 42.87 648.34 64.08 670.76 45.17 682.66 47.47 685.15 101.59 643.64 207.3 558.94 159.35 490.46 104.15 229.02 72.49 153.29 303.27 102.98 287.88 136.08 64.08"/><path class="b" d="M1109.3,630.88l-44.38,57.77,19.13-78,9.91-45.24-20.62-67.24L1068,426.21l-29.84-50.63-10.71,55.76-13-110.13-30.6-35.3-26,20.18L933.32,400.2l-4.59-94.88L915,290.79l-10,30.42-6.89-68.68-43.61-28.31L840,361.94,812.43,224.22H793.3l-25.25,33.67-19.13-45h-13l-26,19-46.67-2.29-17.6-16.69h-26l-3.83,15.92-19.13-11.47-29.83,6.88-6.89,23.72L515.56,275.3l-29.14,56.95L472,303.79l-13,71.79L446.7,321.21l-9.18,23.9L413,445.34l-15.31-91-14.53,7.65L361,468.29s-18.37-120.12-20.66-114-48.2,106.35-48.2,106.35l24.48,130.08L285.26,712.37,312,741.44l65.8,3.83,39.79,15.3,97.17,14.54-129.31,5.74s299.16,15.68,295.34,14.92-95.64-18.37-95.64-18.37l45.14-13L680.87,759l56.58,13-85.7,1.53,147.67,10.71-32.13-11.48,37.49-18.36s98.7,13.77,96.4,13-31.37-19.9-31.37-19.9l100.24-3.82,36.72,3.06,19.9,6.12-21.43,24.48,61.21-15.3,47.44-56.23ZM919.55,611.37,905.78,623l-19.84,67.84-70.45,11.59h-89.9S840.74,691,837.68,691s-164.5-4.6-164.5-4.6L561.47,678.7l-72.69-28.3,23.72,19.12s-26.78,3.06-29.07,2.3-3.83-13.77-3.83-13.77l-20.66-71.16,3.83-70.6,26.78-66.21-16.33-63.31,65.95-72.28,61.32,30.62,108.65-23.9,60.44,33.08,102,32.48,12.8,44.57,12.24,40,17.6,7.65L928,539.45,918,553.22Z" transform="translate(-285.26 -212.89)"/><path class="b" d="M1109.3,630.88l-44.38,57.77,19.13-78,9.91-45.24-20.62-67.24L1068,426.21l-29.84-50.63-10.71,55.76-13-110.13-30.6-35.3-26,20.18L933.32,400.2l-4.59-94.88L915,290.79l-10,30.42-6.89-68.68-43.61-28.31L840,361.94,812.43,224.22H793.3l-25.25,33.67-19.13-45h-13l-26,19-46.67-2.29-17.6-16.69h-26l-3.83,15.92-19.13-11.47-29.83,6.88-6.89,23.72L515.56,275.3,486.7,330,472,303.79l-13,71.79L446.7,321.21l-9.18,23.9L413,445.34l-15.31-91-14.53,7.65L361,468.29s-18.37-120.12-20.66-114-48.2,106.35-48.2,106.35l24.48,130.08L285.26,712.37,312,741.44l65.8,3.83,39.79,15.3,97.17,14.54-129.31,5.74s299.16,15.68,295.34,14.92-95.64-18.37-95.64-18.37l45.14-13L680.87,759l56.58,13-85.7,1.53,147.67,10.71-32.13-11.48,37.49-18.36s98.7,13.77,96.4,13-31.37-19.9-31.37-19.9l100.24-3.82,36.72,3.06,19.9,6.12-21.43,24.48,61.21-15.3,47.44-56.23ZM919.55,611.37,905.78,623l-19.84,67.84-70.45,11.59h-89.9S840.74,691,837.68,691s-164.5-4.6-164.5-4.6L561.47,678.7l-72.69-28.3,23.72,19.12s-26.78,3.06-29.07,2.3-3.83-13.77-3.83-13.77l-20.66-71.16,3.83-70.6,26.78-66.21L488.4,371.6l49-57.79,63.06,31.3,108.65-23.9,60.44,33.08,97.55,34.2,17.22,42.85,12.24,40,17.6,7.65L928,539.45,918,553.22Z" transform="translate(-285.26 -212.89)"/><polygon class="c" points="250.53 61.22 219.54 127.08 256.39 67.05 250.53 61.22"/><polygon class="c" points="520.22 83.72 488.39 123.88 476.53 120.78 484.17 102.59 460.04 120.78 435.65 105.52 435.65 23.46 420.8 87.16 413.34 95.19 409.8 34.36 397.68 100.36 394.47 90.6 379.34 106.33 340.02 115.47 360.56 100.93 334.22 106.33 320.2 95.14 320.2 115.47 270.6 63.41 308.48 119.02 298.29 119.64 292.8 115.5 257.78 88.83 226.44 128.03 206.13 133.76 196.27 154.19 204.29 237.19 204 160.1 254.04 105.17 315.23 132.22 319.67 131.24 423.88 108.32 484.32 141.4 491.74 144.4 497.93 146.17 497.84 144.71 520.22 83.72"/><polygon class="c" points="118.34 270.98 122.93 323.46 141.61 358.88 159.65 445.82 187.96 486.74 151.83 458.53 127.64 357.06 110.69 327.81 118.34 270.98"/><path class="d" d="M905.78,623l-19.84,67.84,14.27,14.42L895,690.83,911.11,633l27.54,8s17.22,35.58,17.79,33.85S949.56,633,949.56,633l-30-21.58Z" transform="translate(-285.26 -212.89)"/><polygon class="c" points="665.44 335.69 665.44 360.94 656.84 394.8 671.21 360.94 665.44 335.69"/><polygon class="c" points="681.51 315.04 687.82 368.4 677.49 414.89 698.15 370.13 681.51 315.04"/><polygon class="c" points="643.64 220.93 695.28 285.2 710.2 359.8 703.89 449.31 721.68 360.94 707.91 280.03 643.64 220.93"/><polygon class="c" points="599.09 218.44 611.33 258.46 628.93 266.11 613.8 254.21 608.06 234.7 612.65 204.86 631.01 173.87 612.65 186.5 600.68 204.86 581.87 175.59 599.09 218.44"/><polygon class="c" points="192.41 266.56 192.41 215.19 179.4 274.49 167.92 246.94 165.25 266.07 155.68 251.15 149.32 270.98 131.96 270.98 177.97 302.25 192.41 266.56"/><polygon class="c" points="149.32 331.1 162.18 378.86 173.66 438.99 167.35 364.96 149.32 331.1"/><polygon class="c" points="77.25 278.31 87.58 347.75 119.72 414.89 98.49 341.43 96.19 270.98 92.18 258.72 77.25 278.31"/><polygon class="c" points="204.29 479.73 239.08 492.35 284.18 492.35 236.78 479.73 204.29 479.73"/><polygon class="c" points="560.26 154.75 630.03 159.48 588.25 162.62 560.26 154.75"/><polygon class="c" points="500.41 135.25 558.94 159.35 496.58 141.75 500.41 135.25"/><polygon class="c" points="625.47 217.48 682.66 284.05 627 231.64 625.47 217.48"/><polygon class="c" points="664.02 275.63 677.49 295.15 670.76 300.12 664.02 275.63"/><polygon class="c" points="687.82 169.85 725.12 258.23 734.3 300.12 727.42 241.59 687.82 169.85"/><polygon class="c" points="654.06 497.52 671.21 474.56 698.15 472.27 718.81 437.26 706.19 474.56 721.68 475.71 691.84 479.73 677.49 479.73 671.21 505.55 666.02 492.35 651.1 509.57 613.23 509.57 654.06 497.52"/><polygon class="c" points="515.29 497.52 587.98 497.52 536.14 503.83 461.73 500.67 400.9 500.67 438.78 492.35 515.29 497.52"/><polygon class="a" points="63.1 385.05 90.65 420.63 105.95 486.74 149.32 530.04 60.81 503.83 65.4 453.53 50.09 498.09 37.09 498.09 54.68 442.05 37.09 445.42 37.09 422.15 48.56 375.48 63.1 385.05"/><polygon class="a" points="196.23 526.98 284.18 540.75 366.49 560.68 272.19 551.46 196.23 526.98"/><polygon class="a" points="43.21 253.83 47.8 331.1 61.57 364.96 43.21 253.83"/><polygon class="a" points="653.39 428.08 625.47 505.96 671.21 479.73 664.02 428.08 653.39 428.08"/><polygon class="a" points="726.46 509.57 730.29 467.02 762.42 385.05 750.18 473.42 726.46 509.57"/><polygon class="a" points="694.33 492.35 734.3 479.73 729.52 515.5 685.15 509.57 694.33 492.35"/><path class="a" d="M742.4,739.87S847.6,736,842.82,736s-75.94,16.07-75.94,16.07Z" transform="translate(-285.26 -212.89)"/><path class="a" d="M607,728.39s100.23,11.48,97.17,11.48-80.33,4.21-80.33,4.21-80.34-3.44-77.28-4.21S607,728.39,607,728.39Z" transform="translate(-285.26 -212.89)"/><polygon class="a" points="567.32 539.22 643.64 539.22 682.66 550.7 567.32 539.22"/><polygon class="a" points="290.61 47.24 340.07 31.18 366.49 31.18 400.9 31.18 366.49 47.24 356.14 65.61 345.76 44.18 340.07 76.32 331.66 45.71 317.89 72.49 309.47 53.75 290.61 57.96 290.61 47.24"/><polygon class="a" points="478.56 64.08 511.46 71.73 478.56 76.32 457.14 64.08 478.56 64.08"/><polygon class="a" points="102.98 356.99 119.72 378.86 128.9 445.42 102.98 356.99"/><polygon class="a" points="77.25 378.86 98.49 414.89 98.49 438.99 77.25 378.86"/><path class="b" d="M798,664.43s75-7.43,75.1-8.6-52.39,14.63-52.39,14.63Z" transform="translate(-285.26 -212.89)"/><polygon class="b" points="563.47 462.86 615.07 462.86 578.17 469.9 563.47 462.86"/><polygon class="a" points="589.03 446.94 614.28 449.81 629.77 465.31 597.63 499.74 544.27 499.74 504.86 476.21 504.86 456.13 535.66 456.13 589.03 446.94"/><polygon class="d" points="504.86 453.06 515.58 445.42 596.68 440.06 614.28 453.06 579.08 482.91 520.93 476.02 504.86 453.06"/><path class="e" d="M849,682.85c0,2.17-5.56,3.94-12.42,3.94s-12.42-1.77-12.42-3.94c0-.7-.27-2.33.71-2.9,2.12-1.21,7-1.05,11.71-1.05,5,0,9.91-.09,11.91,1.24C849.23,680.66,849,682.24,849,682.85Z" transform="translate(-285.26 -212.89)"/><ellipse class="f" cx="551.29" cy="468.37" rx="12.42" ry="3.94"/><path class="e" d="M878.53,670.88c0,2.17-5.56,3.94-12.42,3.94s-12.42-1.77-12.42-3.94c0-.7-.27-2.33.72-2.9,2.12-1.21,7-1.05,11.7-1.05,4.95,0,9.91-.09,11.91,1.24C878.79,668.69,878.53,670.27,878.53,670.88Z" transform="translate(-285.26 -212.89)"/><ellipse class="f" cx="580.85" cy="456.4" rx="12.42" ry="3.94"/><path class="e" d="M844.92,665.36c0,2.18-5.56,3.94-12.43,3.94s-12.42-1.76-12.42-3.94c0-.69-.27-2.33.72-2.9,2.12-1.21,7-1,11.7-1,5,0,9.92-.09,11.91,1.24C845.17,663.17,844.92,664.75,844.92,665.36Z" transform="translate(-285.26 -212.89)"/><ellipse class="f" cx="547.23" cy="450.89" rx="12.42" ry="3.94"/><path class="e" d="M877.35,667.08c0,2.18-5.56,3.94-12.42,3.94s-12.42-1.76-12.42-3.94c0-.69-.27-2.33.71-2.9,2.12-1.21,7-1,11.71-1,5,0,9.91-.09,11.91,1.24C877.61,664.89,877.35,666.47,877.35,667.08Z" transform="translate(-285.26 -212.89)"/><ellipse class="f" cx="579.67" cy="452.61" rx="12.42" ry="3.94"/><path class="g" d="M470.15,715.57c-.26,2.17-6,3.24-12.81,2.4s-12.11-3.26-11.85-5.42c.09-.69,0-2.35,1.07-2.79,2.25-1,7.1-.18,11.74.39,4.92.6,9.85,1.12,11.67,2.68C470.68,713.43,470.23,715,470.15,715.57Z" transform="translate(-285.26 -212.89)"/><ellipse class="h" cx="458.02" cy="712.5" rx="3.94" ry="12.42" transform="translate(-590.25 867.37) rotate(-83)"/><path class="g" d="M509.64,705.56c-.26,2.16-6,3.27-12.8,2.47s-12.13-3.2-11.88-5.36c.08-.69,0-2.35,1.05-2.79,2.25-1,7.1-.23,11.75.32,4.91.57,9.85,1.06,11.68,2.62C510.15,703.41,509.71,705,509.64,705.56Z" transform="translate(-285.26 -212.89)"/><ellipse class="h" cx="497.48" cy="702.55" rx="3.94" ry="12.42" transform="translate(-543.42 902.05) rotate(-83.32)"/><polygon class="i" points="186.46 379.65 180.97 373.25 168.63 376.45 169.82 379.65 153.92 389.85 153.92 401.24 155.88 403.14 155.88 406.7 146.09 415.48 143.48 434.04 128.77 477.4 150.36 494.96 167.92 485.23 179.75 489.74 214.16 487.61 236.09 479.18 227.95 457.23 186.46 379.65"/><path class="j" d="M517.57,640l-13.88-39.87L491,588.24l-38.12,11.9.73,5.56-2.27.49-2.58,23.66-7.65,31.32,6.76,23.67L465,689.29l14.85-5,5.32,11.5,33.69-1.48,22.78-20.9ZM460,641.49l10.56,22.77-3.73.65-6.27-10-5.72-8.66ZM454.49,634l1.64-9.17,1.31,10-4.14,5.92Zm14.2,47.69-14.91-7.12-3.39-17.44.9-5.07,7,14.92,11.39,8.18,4.57-2.9,3.55,7.66Z" transform="translate(-285.26 -212.89)"/><polygon class="j" points="193.16 379.28 191.74 370.63 179.75 371.35 181.53 382.26 183.62 382.26 184.26 375.35 190.9 373.64 191.97 379.65 193.16 379.28"/><polygon class="k" points="190.9 373.64 191.97 379.65 193.16 379.28 191.74 370.63 179.75 371.35 183.43 373.25 190.9 373.64"/><polygon class="k" points="235.83 474.56 255.84 459.79 232.31 427.12 218.43 387.24 205.76 375.35 175.3 384.85 181.41 390.33 193.28 431.37 215.58 469.57 235.83 474.56"/><polygon class="j" points="183.43 403.49 193.75 418.94 206.56 422.83 223.73 407 183.82 398.65 183.43 403.49"/><polygon class="k" points="166.11 390.8 175.3 390.8 186.75 401.35 194.94 417.72 205.76 419.45 226.44 405.13 220.56 384.93 204.72 373.25 167.65 384.93 166.11 390.8"/><polygon class="l" points="167.65 384.93 166.75 388.35 175.3 387.24 189.78 397.92 196.27 414 206.51 418.94 226.44 405.13 220.56 384.93 204.72 373.25 167.65 384.93"/><polygon class="j" points="210 404.21 213.09 404.21 213.09 406.93 211.54 409.19 209.06 407.77 209.06 405.22 210 404.21"/><polygon class="k" points="211.07 403.14 214.16 403.14 214.16 405.87 212.61 408.12 210.12 406.7 210.12 404.15 211.07 403.14"/><polygon class="k" points="236.76 430.12 243.88 440.44 246.72 444.82 238.59 450.52 230.43 449.45 225.46 435.3 236.76 430.12"/><polygon class="j" points="233.32 448.44 230.12 438.95 233.26 439.55 238.08 432.03 236.76 430.12 220.88 436.83 229.78 453 238.59 450.52 246.72 444.82 236.94 448.62 233.32 448.44"/><polygon class="l" points="223.91 434.8 232.09 429.73 236.4 427.32 238.59 431.77 232.13 436.44 223.91 434.8"/><polygon class="k" points="221.9 436.83 229.02 447.15 231.86 451.54 223.73 457.23 215.57 456.17 210.6 442.02 221.9 436.83"/><polygon class="j" points="218.46 455.16 215.26 445.67 218.4 446.26 223.22 438.75 221.9 436.83 210.6 442.02 215.57 456.17 223.73 457.23 231.86 451.54 222.08 455.34 218.46 455.16"/><polygon class="l" points="209.06 441.52 217.27 438.13 221.54 434.04 223.73 438.49 217.27 444.19 209.06 441.52"/><path class="j" d="M478.42,648.66s30.05-7.48,29.69-7.36-25.39,13.15-25.39,13.15Z" transform="translate(-285.26 -212.89)"/><polygon class="k" points="165.52 463.88 183.43 468.74 168.51 461.62 165.13 444.19 166.03 439.12 168.49 427.12 168.04 427.76 169.23 421.05 170.47 414.14 168.28 411.8 160.56 444.19 165.52 463.88"/><path class="g" d="M469.36,710.74c-.37,2.15-6.15,2.94-12.91,1.78s-11.94-3.85-11.57-6c.12-.68.13-2.34,1.2-2.73,2.29-.83,7.1.16,11.71,1,4.88.84,9.78,1.59,11.53,3.24C470,708.63,469.47,710.14,469.36,710.74Z" transform="translate(-285.26 -212.89)"/><ellipse class="h" cx="457.39" cy="707.08" rx="3.94" ry="12.42" transform="translate(-602.33 824.91) rotate(-80.23)"/><path class="g" d="M483.63,707.48c-.26,2.16-6,3.27-12.8,2.47s-12.13-3.2-11.88-5.36c.08-.69,0-2.35,1.05-2.8,2.25-.95,7.1-.22,11.75.33,4.91.57,9.85,1.06,11.68,2.61C484.14,705.33,483.7,706.87,483.63,707.48Z" transform="translate(-285.26 -212.89)"/><ellipse class="h" cx="471.47" cy="704.47" rx="3.94" ry="12.42" transform="translate(-568.31 877.91) rotate(-83.32)"/></svg>